{
  "accessors": [
    {
      "bufferView": 2,
      "componentType": 5126,
      "count": 63,
      "max": [
        40.0,
        40.0,
        40.0
      ],
      "min": [
        -40.0,
        -40.0,
        -40.0
      ],
      "type": "VEC3"
    },
    {
      "bufferView": 2,
      "byteOffset": 756,
      "componentType": 5126,
      "count": 63,
      "max": [
        0.8506507873535156,
        0.8506507873535156,
        0.5257858037948608
      ],
      "min": [
        -0.8506507873535156,
        -0.8506507873535156,
        -0.8506508469581604
      ],
      "type": "VEC3"
    },
    {
      "bufferView": 1,
      "componentType": 5126,
      "count": 63,
      "max": [
        0.0,
        0.0
      ],
      "min": [
        0.0,
        0.0
      ],
      "type": "VEC2"
    },
    {
      "bufferView": 0,
      "componentType": 5125,
      "count": 111,
      "type": "SCALAR"
    },
    {
      "bufferView": 2,
      "byteOffset": 1512,
      "componentType": 5126,
      "count": 120,
      "max": [
        40.0,
        40.0,
        40.0
      ],
      "min": [
        -40.0,
        -40.0,
        -40.0
      ],
      "type": "VEC3"
    },
    {
      "bufferView": 2,
      "byteOffset": 2952,
      "componentType": 5126,
      "count": 120,
      "max": [
        0.8505819439888,
        0.85056072473526,
        0.8505819439888
      ],
      "min": [
        -0.8505820035934448,
        -0.8505819439888,
        -0.8505819439888
      ],
      "type": "VEC3"
    },
    {
      "bufferView": 1,
      "byteOffset": 504,
      "componentType": 5126,
      "count": 120,
      "max": [
        0.0,
        0.0
      ],
      "min": [
        0.0,
        0.0
      ],
      "type": "VEC2"
    },
    {
      "bufferView": 0,
      "byteOffset": 444,
      "componentType": 5125,
      "count": 252,
      "type": "SCALAR"
    }
  ],
  "asset": {
    "extras": {
      "author": "PolyhedralExaminer (https://sketchfab.com/PolyhedralExaminer)",
      "license": "CC-BY-4.0 (http://creativecommons.org/licenses/by/4.0/)",
      "source": "https://sketchfab.com/3d-models/dodecadodecahedron-de5ae82b7f184e8680ae7e595d5b5858",
      "title": "Dodecadodecahedron"
    },
    "generator": "Sketchfab-15.50.0",
    "version": "2.0"
  },
  "bufferViews": [
    {
      "buffer": 0,
      "byteLength": 1452,
      "name": "floatBufferViews",
      "target": 34963
    },
    {
      "buffer": 0,
      "byteLength": 1464,
      "byteOffset": 1452,
      "byteStride": 8,
      "name": "floatBufferViews",
      "target": 34962
    },
    {
      "buffer": 0,
      "byteLength": 4392,
      "byteOffset": 2916,
      "byteStride": 12,
      "name": "floatBufferViews",
      "target": 34962
    }
  ],
  "buffers": [
    {
      "byteLength": 7308,
      "uri": "scene.bin"
    }
  ],
  "images": [
    {
      "uri": "textures/Material.002_baseColor.png"
    },
    {
      "uri": "textures/Material.001_baseColor.png"
    }
  ],
  "materials": [
    {
      "doubleSided": true,
      "name": "Material.002",
      "pbrMetallicRoughness": {
        "baseColorTexture": {
          "index": 0
        },
        "metallicFactor": 0.0,
        "roughnessFactor": 0.8211145618000169
      }
    },
    {
      "doubleSided": true,
      "name": "Material.001",
      "pbrMetallicRoughness": {
        "baseColorTexture": {
          "index": 1
        },
        "metallicFactor": 0.0,
        "roughnessFactor": 0.8211145618000169
      }
    }
  ],
  "meshes": [
    {
      "name": "Dodecadodecahedron.001_Material.002_0",
      "primitives": [
        {
          "attributes": {
            "NORMAL": 1,
            "POSITION": 0,
            "TEXCOORD_0": 2
          },
          "indices": 3,
          "material": 0,
          "mode": 4
        }
      ]
    },
    {
      "name": "Dodecadodecahedron.001_Material.001_0",
      "primitives": [
        {
          "attributes": {
            "NORMAL": 5,
            "POSITION": 4,
            "TEXCOORD_0": 6
          },
          "indices": 7,
          "material": 1,
          "mode": 4
        }
      ]
    }
  ],
  "nodes": [
    {
      "children": [
        1
      ],
      "matrix": [
        1.0,
        0.0,
        0.0,
        0.0,
        0.0,
        2.220446049250313e-16,
        -1.0,
        0.0,
        0.0,
        1.0,
        2.220446049250313e-16,
        0.0,
        0.0,
        0.0,
        0.0,
        1.0
      ],
      "name": "Sketchfab_model"
    },
    {
      "children": [
        2
      ],
      "matrix": [
        0.009999999776482582,
        0.0,
        0.0,
        0.0,
        0.0,
        0.0,
        0.009999999776482582,
        0.0,
        0.0,
        -0.009999999776482582,
        0.0,
        0.0,
        0.0,
        0.0,
        0.0,
        1.0
      ],
      "name": "da1990109f47489da67918e8f610e222.fbx"
    },
    {
      "children": [
        3
      ],
      "name": "RootNode"
    },
    {
      "children": [
        4,
        5
      ],
      "matrix": [
        100.0,
        0.0,
        0.0,
        0.0,
        0.0,
        -1.629206793918314e-05,
        -99.99999999999868,
        0.0,
        0.0,
        99.99999999999868,
        -1.629206793918314e-05,
        0.0,
        0.0,
        0.0,
        0.0,
        1.0
      ],
      "name": "Dodecadodecahedron.001"
    },
    {
      "mesh": 0,
      "name": "Dodecadodecahedron.001_Material.002_0"
    },
    {
      "mesh": 1,
      "name": "Dodecadodecahedron.001_Material.001_0"
    }
  ],
  "samplers": [
    {
      "magFilter": 9729,
      "minFilter": 9987,
      "wrapS": 10497,
      "wrapT": 10497
    }
  ],
  "scene": 0,
  "scenes": [
    {
      "name": "Sketchfab_Scene",
      "nodes": [
        0
      ]
    }
  ],
  "textures": [
    {
      "sampler": 0,
      "source": 0
    },
    {
      "sampler": 0,
      "source": 1
    }
  ]
}
